<?xml version="1.0" encoding="utf-8" ?>
<svg baseProfile="tiny" height="1024" version="1.2" width="1024" xmlns="http://www.w3.org/2000/svg" xmlns:ev="http://www.w3.org/2001/xml-events" xmlns:xlink="http://www.w3.org/1999/xlink"><defs /><path d="M 798,926 L 801,926 Z" fill="none" stroke="white" stroke-width="2" /><path d="M 366,926 L 367,927 L 368,927 L 368,926 Z" fill="none" stroke="white" stroke-width="2" /><path d="M 840,905 L 840,906 L 841,906 L 841,905 Z" fill="none" stroke="white" stroke-width="2" /><path d="M 800,905 Z" fill="none" stroke="white" stroke-width="2" /><path d="M 720,905 Z" fill="none" stroke="white" stroke-width="2" /><path d="M 678,905 L 678,906 L 679,906 L 679,905 Z" fill="none" stroke="white" stroke-width="2" /><path d="M 657,905 Z" fill="none" stroke="white" stroke-width="2" /><path d="M 528,905 Z" fill="none" stroke="white" stroke-width="2" /><path d="M 266,905 L 267,906 L 267,905 Z" fill="none" stroke="white" stroke-width="2" /><path d="M 204,905 Z" fill="none" stroke="white" stroke-width="2" /><path d="M 162,905 L 162,906 Z" fill="none" stroke="white" stroke-width="2" /><path d="M 657,884 Z" fill="none" stroke="white" stroke-width="2" /><path d="M 903,883 L 903,884 L 904,884 L 904,883 Z" fill="none" stroke="white" stroke-width="2" /><path d="M 882,883 Z" fill="none" stroke="white" stroke-width="2" /><path d="M 861,883 L 860,884 L 861,885 L 862,885 L 862,883 Z" fill="none" stroke="white" stroke-width="2" /><path d="M 840,883 L 840,885 L 841,884 L 841,883 Z" fill="none" stroke="white" stroke-width="2" /><path d="M 819,883 L 819,884 L 820,884 Z" fill="none" stroke="white" stroke-width="2" /><path d="M 760,883 L 760,884 L 761,884 Z" fill="none" stroke="white" stroke-width="2" /><path d="M 740,883 L 740,884 Z" fill="none" stroke="white" stroke-width="2" /><path d="M 678,883 Z" fill="none" stroke="white" stroke-width="2" /><path d="M 635,883 L 635,884 Z" fill="none" stroke="white" stroke-width="2" /><path d="M 411,883 Z" fill="none" stroke="white" stroke-width="2" /><path d="M 326,883 L 326,884 Z" fill="none" stroke="white" stroke-width="2" /><path d="M 286,883 Z" fill="none" stroke="white" stroke-width="2" /><path d="M 266,883 L 266,884 L 267,883 Z" fill="none" stroke="white" stroke-width="2" /><path d="M 162,883 L 162,884 L 163,884 Z" fill="none" stroke="white" stroke-width="2" /><path d="M 799,882 L 799,885 L 800,884 L 800,882 Z" fill="none" stroke="white" stroke-width="2" /><path d="M 615,882 L 614,883 L 615,884 Z" fill="none" stroke="white" stroke-width="2" /><path d="M 548,882 L 548,883 L 549,883 Z" fill="none" stroke="white" stroke-width="2" /><path d="M 431,882 L 431,883 L 432,884 L 432,882 Z" fill="none" stroke="white" stroke-width="2" /><path d="M 388,882 L 388,883 L 389,884 L 388,883 Z" fill="none" stroke="white" stroke-width="2" /><path d="M 366,882 L 366,883 L 367,884 L 368,884 L 368,882 Z" fill="none" stroke="white" stroke-width="2" /><path d="M 345,882 L 345,883 L 346,884 L 346,882 Z" fill="none" stroke="white" stroke-width="2" /><path d="M 305,882 L 305,883 L 306,883 Z" fill="none" stroke="white" stroke-width="2" /><path d="M 204,882 L 203,883 L 204,884 Z" fill="none" stroke="white" stroke-width="2" /><path d="M 819,862 Z" fill="none" stroke="white" stroke-width="2" /><path d="M 699,862 Z" fill="none" stroke="white" stroke-width="2" /><path d="M 862,861 L 861,862 L 862,862 Z" fill="none" stroke="white" stroke-width="2" /><path d="M 799,861 L 799,862 L 800,862 L 800,861 Z" fill="none" stroke="white" stroke-width="2" /><path d="M 720,861 L 720,862 Z" fill="none" stroke="white" stroke-width="2" /><path d="M 656,861 L 655,862 L 655,863 L 656,863 L 657,862 Z" fill="none" stroke="white" stroke-width="2" /><path d="M 635,861 Z" fill="none" stroke="white" stroke-width="2" /><path d="M 614,861 L 614,862 L 615,862 L 615,861 Z" fill="none" stroke="white" stroke-width="2" /><path d="M 594,861 L 594,862 L 595,862 L 595,861 Z" fill="none" stroke="white" stroke-width="2" /><path d="M 571,861 L 571,862 L 572,862 Z" fill="none" stroke="white" stroke-width="2" /><path d="M 472,861 L 472,862 L 473,862 L 473,861 Z" fill="none" stroke="white" stroke-width="2" /><path d="M 452,861 Z" fill="none" stroke="white" stroke-width="2" /><path d="M 431,861 L 431,862 Z" fill="none" stroke="white" stroke-width="2" /><path d="M 410,861 L 410,862 Z" fill="none" stroke="white" stroke-width="2" /><path d="M 366,861 L 366,862 L 367,863 L 368,863 L 369,862 L 368,861 Z" fill="none" stroke="white" stroke-width="2" /><path d="M 326,861 L 326,862 L 327,862 L 327,861 Z" fill="none" stroke="white" stroke-width="2" /><path d="M 306,861 Z" fill="none" stroke="white" stroke-width="2" /><path d="M 266,861 L 266,862 L 267,862 L 267,861 Z" fill="none" stroke="white" stroke-width="2" /><path d="M 162,861 L 162,862 L 163,862 L 163,861 Z" fill="none" stroke="white" stroke-width="2" /><path d="M 549,860 L 549,862 Z" fill="none" stroke="white" stroke-width="2" /><path d="M 388,860 L 387,861 L 388,862 Z" fill="none" stroke="white" stroke-width="2" /><path d="M 882,841 Z" fill="none" stroke="white" stroke-width="2" /><path d="M 862,841 Z" fill="none" stroke="white" stroke-width="2" /><path d="M 839,841 L 840,841 Z" fill="none" stroke="white" stroke-width="2" /><path d="M 819,841 L 820,841 Z" fill="none" stroke="white" stroke-width="2" /><path d="M 720,841 Z" fill="none" stroke="white" stroke-width="2" /><path d="M 677,841 L 678,841 Z" fill="none" stroke="white" stroke-width="2" /><path d="M 634,841 L 635,841 Z" fill="none" stroke="white" stroke-width="2" /><path d="M 593,841 L 594,841 Z" fill="none" stroke="white" stroke-width="2" /><path d="M 161,841 L 163,841 Z" fill="none" stroke="white" stroke-width="2" /><path d="M 141,841 Z" fill="none" stroke="white" stroke-width="2" /><path d="M 120,841 Z" fill="none" stroke="white" stroke-width="2" /><path d="M 799,840 L 799,841 L 800,841 L 800,840 Z" fill="none" stroke="white" stroke-width="2" /><path d="M 698,840 L 698,841 L 700,841 L 699,840 Z" fill="none" stroke="white" stroke-width="2" /><path d="M 655,840 L 655,842 L 656,841 L 657,841 L 657,840 Z" fill="none" stroke="white" stroke-width="2" /><path d="M 549,840 L 548,841 L 549,842 Z" fill="none" stroke="white" stroke-width="2" /><path d="M 452,840 L 451,841 L 452,841 Z" fill="none" stroke="white" stroke-width="2" /><path d="M 368,840 L 367,841 L 368,841 Z" fill="none" stroke="white" stroke-width="2" /><path d="M 326,840 L 329,840 Z" fill="none" stroke="white" stroke-width="2" /><path d="M 266,840 L 267,840 Z" fill="none" stroke="white" stroke-width="2" /><path d="M 526,839 L 526,840 L 527,840 L 527,839 Z" fill="none" stroke="white" stroke-width="2" /><path d="M 77,821 Z" fill="none" stroke="white" stroke-width="2" /><path d="M 924,820 L 923,821 L 925,821 L 925,820 Z" fill="none" stroke="white" stroke-width="2" /><path d="M 760,820 L 760,821 Z" fill="none" stroke="white" stroke-width="2" /><path d="M 698,820 Z" fill="none" stroke="white" stroke-width="2" /><path d="M 245,820 Z" fill="none" stroke="white" stroke-width="2" /><path d="M 98,820 L 98,821 L 100,821 L 99,820 Z" fill="none" stroke="white" stroke-width="2" /><path d="M 862,819 L 862,821 L 863,820 Z" fill="none" stroke="white" stroke-width="2" /><path d="M 840,819 L 840,821 Z" fill="none" stroke="white" stroke-width="2" /><path d="M 818,819 L 819,820 L 819,821 L 820,820 L 819,819 Z" fill="none" stroke="white" stroke-width="2" /><path d="M 779,819 L 779,820 L 780,821 L 781,820 L 780,819 Z" fill="none" stroke="white" stroke-width="2" /><path d="M 739,819 L 739,820 L 740,821 L 740,819 Z" fill="none" stroke="white" stroke-width="2" /><path d="M 571,819 L 571,820 Z" fill="none" stroke="white" stroke-width="2" /><path d="M 549,819 L 548,820 L 549,821 L 550,820 L 550,819 Z" fill="none" stroke="white" stroke-width="2" /><path d="M 451,819 L 451,821 L 452,820 L 452,819 Z" fill="none" stroke="white" stroke-width="2" /><path d="M 431,819 L 431,820 L 432,820 Z" fill="none" stroke="white" stroke-width="2" /><path d="M 388,819 L 388,820 L 389,820 Z" fill="none" stroke="white" stroke-width="2" /><path d="M 366,819 L 367,820 L 367,821 L 368,821 L 368,819 Z" fill="none" stroke="white" stroke-width="2" /><path d="M 346,819 L 346,820 L 347,820 Z" fill="none" stroke="white" stroke-width="2" /><path d="M 327,819 L 327,821 L 329,821 L 329,820 L 328,819 Z" fill="none" stroke="white" stroke-width="2" /><path d="M 307,819 L 307,820 Z" fill="none" stroke="white" stroke-width="2" /><path d="M 286,819 L 287,820 L 287,821 L 288,820 L 288,819 Z" fill="none" stroke="white" stroke-width="2" /><path d="M 224,819 L 224,820 Z" fill="none" stroke="white" stroke-width="2" /><path d="M 203,819 L 203,820 L 204,820 L 204,819 Z" fill="none" stroke="white" stroke-width="2" /><path d="M 799,818 L 799,821 L 800,821 L 801,820 L 801,819 L 800,818 Z" fill="none" stroke="white" stroke-width="2" /><path d="M 719,818 L 719,820 Z" fill="none" stroke="white" stroke-width="2" /><path d="M 634,818 L 634,820 L 635,820 L 636,821 L 636,820 Z" fill="none" stroke="white" stroke-width="2" /><path d="M 614,818 L 614,820 L 615,820 L 615,818 Z" fill="none" stroke="white" stroke-width="2" /><path d="M 840,799 Z" fill="none" stroke="white" stroke-width="2" /><path d="M 697,799 L 698,800 L 699,800 L 698,799 Z" fill="none" stroke="white" stroke-width="2" /><path d="M 346,799 L 346,800 L 347,800 L 347,799 Z" fill="none" stroke="white" stroke-width="2" /><path d="M 287,799 Z" fill="none" stroke="white" stroke-width="2" /><path d="M 162,799 L 162,800 Z" fill="none" stroke="white" stroke-width="2" /><path d="M 862,798 L 861,799 L 862,800 L 863,799 Z" fill="none" stroke="white" stroke-width="2" /><path d="M 799,798 L 798,799 L 799,799 L 800,800 L 801,799 L 800,798 Z" fill="none" stroke="white" stroke-width="2" /><path d="M 778,798 L 778,799 L 779,800 L 780,799 L 781,799 L 781,798 Z" fill="none" stroke="white" stroke-width="2" /><path d="M 677,798 L 677,799 Z" fill="none" stroke="white" stroke-width="2" /><path d="M 614,798 L 614,799 Z" fill="none" stroke="white" stroke-width="2" /><path d="M 593,798 L 592,799 L 594,799 L 594,798 Z" fill="none" stroke="white" stroke-width="2" /><path d="M 326,798 L 325,799 L 326,800 L 329,800 L 330,799 L 329,799 L 328,798 Z" fill="none" stroke="white" stroke-width="2" /><path d="M 224,798 Z" fill="none" stroke="white" stroke-width="2" /><path d="M 571,797 L 570,798 L 571,799 L 572,799 L 572,797 Z" fill="none" stroke="white" stroke-width="2" /><path d="M 548,797 L 548,799 L 549,799 L 550,798 L 550,797 Z" fill="none" stroke="white" stroke-width="2" /><path d="M 799,779 Z" fill="none" stroke="white" stroke-width="2" /><path d="M 120,779 L 120,780 Z" fill="none" stroke="white" stroke-width="2" /><path d="M 99,779 Z" fill="none" stroke="white" stroke-width="2" /><path d="M 77,779 Z" fill="none" stroke="white" stroke-width="2" /><path d="M 779,778 L 780,778 Z" fill="none" stroke="white" stroke-width="2" /><path d="M 739,778 L 739,779 Z" fill="none" stroke="white" stroke-width="2" /><path d="M 677,778 L 678,778 Z" fill="none" stroke="white" stroke-width="2" /><path d="M 431,778 Z" fill="none" stroke="white" stroke-width="2" /><path d="M 387,778 L 387,779 L 388,779 Z" fill="none" stroke="white" stroke-width="2" /><path d="M 905,777 Z" fill="none" stroke="white" stroke-width="2" /><path d="M 840,777 L 839,778 L 840,778 Z" fill="none" stroke="white" stroke-width="2" /><path d="M 759,777 L 759,779 Z" fill="none" stroke="white" stroke-width="2" /><path d="M 719,777 L 719,779 L 720,778 L 720,777 Z" fill="none" stroke="white" stroke-width="2" /><path d="M 698,777 L 698,779 L 699,779 L 699,778 Z" fill="none" stroke="white" stroke-width="2" /><path d="M 656,777 L 656,778 L 657,778 L 657,777 Z" fill="none" stroke="white" stroke-width="2" /><path d="M 635,777 L 635,779 L 636,778 Z" fill="none" stroke="white" stroke-width="2" /><path d="M 614,777 L 614,778 Z" fill="none" stroke="white" stroke-width="2" /><path d="M 593,777 Z" fill="none" stroke="white" stroke-width="2" /><path d="M 548,777 Z" fill="none" stroke="white" stroke-width="2" /><path d="M 450,777 L 450,778 L 452,778 L 451,778 Z" fill="none" stroke="white" stroke-width="2" /><path d="M 817,776 L 817,779 L 818,778 L 819,778 Z" fill="none" stroke="white" stroke-width="2" /><path d="M 304,775 L 304,776 L 303,777 L 303,779 L 306,779 L 306,778 L 304,776 Z" fill="none" stroke="white" stroke-width="2" /><path d="M 323,773 L 323,774 L 322,775 L 321,775 L 321,776 L 322,776 L 323,775 L 323,774 L 324,773 Z" fill="none" stroke="white" stroke-width="2" /><path d="M 225,761 L 226,761 Z" fill="none" stroke="white" stroke-width="2" /><path d="M 385,758 Z" fill="none" stroke="white" stroke-width="2" /><path d="M 377,758 L 377,759 L 378,759 L 379,758 L 378,759 Z" fill="none" stroke="white" stroke-width="2" /><path d="M 162,758 Z" fill="none" stroke="white" stroke-width="2" /><path d="M 120,758 L 121,758 Z" fill="none" stroke="white" stroke-width="2" /><path d="M 593,757 Z" fill="none" stroke="white" stroke-width="2" /><path d="M 452,757 Z" fill="none" stroke="white" stroke-width="2" /><path d="M 656,756 L 656,757 L 657,758 L 658,757 L 659,757 L 658,756 Z" fill="none" stroke="white" stroke-width="2" /><path d="M 471,756 L 471,757 L 473,757 L 473,756 Z" fill="none" stroke="white" stroke-width="2" /><path d="M 431,756 L 431,758 L 432,757 Z" fill="none" stroke="white" stroke-width="2" /><path d="M 386,756 Z" fill="none" stroke="white" stroke-width="2" /><path d="M 140,756 L 140,757 L 141,758 L 142,757 L 141,756 Z" fill="none" stroke="white" stroke-width="2" /><path d="M 77,756 L 77,758 L 78,758 L 78,757 Z" fill="none" stroke="white" stroke-width="2" /><path d="M 635,755 L 635,757 L 636,756 L 636,755 Z" fill="none" stroke="white" stroke-width="2" /><path d="M 593,755 L 594,755 Z" fill="none" stroke="white" stroke-width="2" /><path d="M 571,755 L 571,756 Z" fill="none" stroke="white" stroke-width="2" /><path d="M 451,755 Z" fill="none" stroke="white" stroke-width="2" /><path d="M 409,755 L 409,758 L 409,756 L 410,755 Z" fill="none" stroke="white" stroke-width="2" /><path d="M 795,754 Z" fill="none" stroke="white" stroke-width="2" /><path d="M 547,754 Z" fill="none" stroke="white" stroke-width="2" /><path d="M 810,753 L 810,754 Z" fill="none" stroke="white" stroke-width="2" /><path d="M 803,753 Z" fill="none" stroke="white" stroke-width="2" /><path d="M 812,752 Z" fill="none" stroke="white" stroke-width="2" /><path d="M 204,752 L 204,754 Z" fill="none" stroke="white" stroke-width="2" /><path d="M 933,750 Z" fill="none" stroke="white" stroke-width="2" /><path d="M 812,750 Z" fill="none" stroke="white" stroke-width="2" /><path d="M 939,749 L 941,751 Z" fill="none" stroke="white" stroke-width="2" /><path d="M 850,748 L 851,749 Z" fill="none" stroke="white" stroke-width="2" /><path d="M 812,748 Z" fill="none" stroke="white" stroke-width="2" /><path d="M 947,747 Z" fill="none" stroke="white" stroke-width="2" /><path d="M 810,743 Z" fill="none" stroke="white" stroke-width="2" /><path d="M 917,742 L 916,743 L 916,744 L 916,743 Z" fill="none" stroke="white" stroke-width="2" /><path d="M 892,741 L 892,742 Z" fill="none" stroke="white" stroke-width="2" /><path d="M 801,741 L 800,742 L 799,742 L 800,743 L 800,744 L 801,744 L 802,745 L 803,745 L 804,746 L 805,746 L 806,747 L 807,747 L 808,746 L 809,746 L 808,745 L 808,744 L 806,742 L 804,742 L 803,741 Z" fill="none" stroke="white" stroke-width="2" /><path d="M 941,740 Z" fill="none" stroke="white" stroke-width="2" /><path d="M 302,737 L 304,737 Z" fill="none" stroke="white" stroke-width="2" /><path d="M 140,737 Z" fill="none" stroke="white" stroke-width="2" /><path d="M 657,736 L 658,736 Z" fill="none" stroke="white" stroke-width="2" /><path d="M 451,736 Z" fill="none" stroke="white" stroke-width="2" /><path d="M 719,735 L 718,736 L 718,737 L 718,736 Z" fill="none" stroke="white" stroke-width="2" /><path d="M 431,735 L 431,737 L 432,736 Z" fill="none" stroke="white" stroke-width="2" /><path d="M 337,733 Z" fill="none" stroke="white" stroke-width="2" /><path d="M 211,732 Z" fill="none" stroke="white" stroke-width="2" /><path d="M 292,731 L 293,731 Z" fill="none" stroke="white" stroke-width="2" /><path d="M 260,731 L 264,731 Z" fill="none" stroke="white" stroke-width="2" /><path d="M 313,730 L 312,731 L 312,733 L 312,732 L 313,731 Z" fill="none" stroke="white" stroke-width="2" /><path d="M 289,729 Z" fill="none" stroke="white" stroke-width="2" /><path d="M 305,728 L 305,729 Z" fill="none" stroke="white" stroke-width="2" /><path d="M 302,728 L 302,730 Z" fill="none" stroke="white" stroke-width="2" /><path d="M 298,728 Z" fill="none" stroke="white" stroke-width="2" /><path d="M 364,725 L 365,726 L 365,727 L 365,725 Z" fill="none" stroke="white" stroke-width="2" /><path d="M 282,723 L 283,723 Z" fill="none" stroke="white" stroke-width="2" /><path d="M 291,722 Z" fill="none" stroke="white" stroke-width="2" /><path d="M 292,720 Z" fill="none" stroke="white" stroke-width="2" /><path d="M 268,720 Z" fill="none" stroke="white" stroke-width="2" /><path d="M 301,719 Z" fill="none" stroke="white" stroke-width="2" /><path d="M 372,718 Z" fill="none" stroke="white" stroke-width="2" /><path d="M 364,718 L 364,722 L 364,721 L 365,720 L 365,718 Z" fill="none" stroke="white" stroke-width="2" /><path d="M 293,718 Z" fill="none" stroke="white" stroke-width="2" /><path d="M 272,718 L 272,719 L 271,720 L 271,722 L 273,724 L 273,729 L 273,718 Z" fill="none" stroke="white" stroke-width="2" /><path d="M 228,718 L 229,719 L 229,718 Z" fill="none" stroke="white" stroke-width="2" /><path d="M 162,718 Z" fill="none" stroke="white" stroke-width="2" /><path d="M 185,717 L 184,718 Z" fill="none" stroke="white" stroke-width="2" /><path d="M 99,717 Z" fill="none" stroke="white" stroke-width="2" /><path d="M 943,716 L 944,716 Z" fill="none" stroke="white" stroke-width="2" /><path d="M 909,716 Z" fill="none" stroke="white" stroke-width="2" /><path d="M 865,716 Z" fill="none" stroke="white" stroke-width="2" /><path d="M 821,716 Z" fill="none" stroke="white" stroke-width="2" /><path d="M 280,716 Z" fill="none" stroke="white" stroke-width="2" /><path d="M 77,716 L 78,716 Z" fill="none" stroke="white" stroke-width="2" /><path d="M 720,715 L 720,717 Z" fill="none" stroke="white" stroke-width="2" /><path d="M 140,715 L 140,717 L 141,717 L 141,715 Z" fill="none" stroke="white" stroke-width="2" /><path d="M 909,714 Z" fill="none" stroke="white" stroke-width="2" /><path d="M 451,714 Z" fill="none" stroke="white" stroke-width="2" /><path d="M 430,714 L 430,715 L 431,716 L 431,714 Z" fill="none" stroke="white" stroke-width="2" /><path d="M 828,712 Z" fill="none" stroke="white" stroke-width="2" /><path d="M 820,712 L 820,713 Z" fill="none" stroke="white" stroke-width="2" /><path d="M 887,711 L 891,711 Z" fill="none" stroke="white" stroke-width="2" /><path d="M 869,710 Z" fill="none" stroke="white" stroke-width="2" /><path d="M 820,710 Z" fill="none" stroke="white" stroke-width="2" /><path d="M 803,709 Z" fill="none" stroke="white" stroke-width="2" /><path d="M 752,709 L 754,711 L 754,713 L 755,714 L 754,713 L 754,711 Z" fill="none" stroke="white" stroke-width="2" /><path d="M 863,708 Z" fill="none" stroke="white" stroke-width="2" /><path d="M 915,706 Z" fill="none" stroke="white" stroke-width="2" /><path d="M 909,703 L 909,707 L 913,707 L 910,707 L 909,706 Z" fill="none" stroke="white" stroke-width="2" /><path d="M 184,700 L 184,702 L 186,702 L 186,701 L 185,700 Z" fill="none" stroke="white" stroke-width="2" /><path d="M 386,699 L 386,700 Z" fill="none" stroke="white" stroke-width="2" /><path d="M 163,698 L 163,700 Z" fill="none" stroke="white" stroke-width="2" /><path d="M 409,697 L 409,698 Z" fill="none" stroke="white" stroke-width="2" /><path d="M 309,697 Z" fill="none" stroke="white" stroke-width="2" /><path d="M 300,697 Z" fill="none" stroke="white" stroke-width="2" /><path d="M 141,697 Z" fill="none" stroke="white" stroke-width="2" /><path d="M 943,696 L 943,697 Z" fill="none" stroke="white" stroke-width="2" /><path d="M 207,696 Z" fill="none" stroke="white" stroke-width="2" /><path d="M 718,695 L 718,697 L 720,697 L 720,696 L 719,696 Z" fill="none" stroke="white" stroke-width="2" /><path d="M 224,694 Z" fill="none" stroke="white" stroke-width="2" /><path d="M 251,693 Z" fill="none" stroke="white" stroke-width="2" /><path d="M 289,692 L 289,693 Z" fill="none" stroke="white" stroke-width="2" /><path d="M 231,691 Z" fill="none" stroke="white" stroke-width="2" /><path d="M 368,689 L 368,691 L 369,690 L 369,689 Z" fill="none" stroke="white" stroke-width="2" /><path d="M 323,689 L 323,690 Z" fill="none" stroke="white" stroke-width="2" /><path d="M 301,689 L 301,691 L 308,691 L 307,691 L 306,690 L 303,690 L 302,691 L 301,690 Z" fill="none" stroke="white" stroke-width="2" /><path d="M 206,689 L 208,689 Z" fill="none" stroke="white" stroke-width="2" /><path d="M 363,688 L 362,689 L 361,689 L 363,689 Z" fill="none" stroke="white" stroke-width="2" /><path d="M 357,688 L 357,689 Z" fill="none" stroke="white" stroke-width="2" /><path d="M 210,688 L 211,688 L 212,689 L 213,689 L 215,691 L 215,688 Z" fill="none" stroke="white" stroke-width="2" /><path d="M 368,687 Z" fill="none" stroke="white" stroke-width="2" /><path d="M 303,687 Z" fill="none" stroke="white" stroke-width="2" /><path d="M 366,686 L 365,687 L 366,688 Z" fill="none" stroke="white" stroke-width="2" /><path d="M 852,685 L 857,685 Z" fill="none" stroke="white" stroke-width="2" /><path d="M 756,685 L 757,685 Z" fill="none" stroke="white" stroke-width="2" /><path d="M 316,685 L 316,688 L 315,689 L 315,690 L 314,691 L 315,692 L 315,696 L 316,696 Z" fill="none" stroke="white" stroke-width="2" /><path d="M 754,684 Z" fill="none" stroke="white" stroke-width="2" /><path d="M 301,684 Z" fill="none" stroke="white" stroke-width="2" /><path d="M 751,682 Z" fill="none" stroke="white" stroke-width="2" /><path d="M 273,680 L 276,683 L 276,684 L 277,684 L 280,687 L 279,688 L 278,688 L 276,686 L 275,686 L 275,688 L 274,689 L 277,689 L 278,688 L 280,688 L 281,689 L 283,689 L 284,690 L 284,688 L 283,687 L 282,687 L 281,686 L 280,686 L 279,685 L 278,685 Z" fill="none" stroke="white" stroke-width="2" /><path d="M 876,679 L 872,683 L 876,679 L 877,679 L 878,680 L 877,679 Z" fill="none" stroke="white" stroke-width="2" /><path d="M 923,678 Z" fill="none" stroke="white" stroke-width="2" /><path d="M 326,678 L 325,679 L 326,679 Z" fill="none" stroke="white" stroke-width="2" /><path d="M 210,678 Z" fill="none" stroke="white" stroke-width="2" /><path d="M 184,678 L 184,679 L 185,680 L 185,678 Z" fill="none" stroke="white" stroke-width="2" /><path d="M 279,677 L 281,679 L 282,679 L 284,681 L 286,681 L 287,680 L 285,680 L 284,679 L 285,678 L 283,678 L 282,679 L 281,679 Z" fill="none" stroke="white" stroke-width="2" /><path d="M 385,676 L 384,677 L 384,678 L 386,678 L 387,677 L 386,677 Z" fill="none" stroke="white" stroke-width="2" /><path d="M 365,676 L 365,679 L 367,679 L 368,680 L 369,680 L 370,681 L 372,681 L 370,681 L 369,680 L 371,678 L 371,677 L 370,676 L 368,676 L 367,677 L 366,676 Z" fill="none" stroke="white" stroke-width="2" /><path d="M 322,676 Z" fill="none" stroke="white" stroke-width="2" /><path d="M 823,674 L 823,675 Z" fill="none" stroke="white" stroke-width="2" /><path d="M 336,674 L 336,676 L 335,677 L 334,676 L 334,677 L 333,678 L 332,677 L 330,677 L 330,678 L 331,678 L 333,680 L 333,685 L 331,687 L 329,687 L 328,688 L 327,687 L 325,687 L 325,691 L 325,689 L 326,688 L 327,689 L 328,688 L 329,689 L 329,690 L 330,690 L 331,689 L 333,689 L 334,690 L 335,689 L 336,690 L 337,690 L 336,689 L 338,687 L 340,687 L 341,688 L 343,688 L 344,689 L 345,688 L 346,688 L 347,689 L 347,690 L 348,690 L 349,691 L 349,689 L 348,689 L 347,688 L 347,687 L 346,686 L 344,686 L 343,685 L 341,685 L 340,684 L 339,684 L 338,683 L 338,682 L 337,681 L 337,679 L 336,678 L 336,677 L 337,676 L 337,675 Z" fill="none" stroke="white" stroke-width="2" /><path d="M 816,673 Z" fill="none" stroke="white" stroke-width="2" /><path d="M 301,672 L 301,673 Z" fill="none" stroke="white" stroke-width="2" /><path d="M 295,672 L 295,673 L 294,674 L 294,681 L 295,681 Z" fill="none" stroke="white" stroke-width="2" /><path d="M 823,671 L 822,672 Z" fill="none" stroke="white" stroke-width="2" /><path d="M 805,671 L 805,673 Z" fill="none" stroke="white" stroke-width="2" /><path d="M 856,669 Z" fill="none" stroke="white" stroke-width="2" /><path d="M 853,667 L 853,668 Z" fill="none" stroke="white" stroke-width="2" /><path d="M 883,666 L 881,668 L 881,669 L 880,670 L 880,672 L 880,670 L 881,669 L 881,668 Z" fill="none" stroke="white" stroke-width="2" /><path d="M 768,666 L 767,667 Z" fill="none" stroke="white" stroke-width="2" /><path d="M 761,666 Z" fill="none" stroke="white" stroke-width="2" /><path d="M 836,665 L 837,665 Z" fill="none" stroke="white" stroke-width="2" /><path d="M 756,665 L 755,666 Z" fill="none" stroke="white" stroke-width="2" /><path d="M 877,664 L 876,665 L 877,665 L 878,664 Z" fill="none" stroke="white" stroke-width="2" /><path d="M 866,664 L 865,665 L 866,666 L 866,667 L 865,668 L 864,668 L 864,671 L 863,672 L 863,673 L 862,674 L 861,674 L 861,676 L 859,678 L 857,678 L 856,679 L 853,679 L 863,679 L 864,680 L 864,683 L 863,684 L 862,684 L 864,684 L 865,683 L 865,682 L 866,681 L 866,680 L 869,677 L 870,677 L 871,676 L 871,675 L 873,673 L 873,671 L 871,669 L 871,668 L 870,668 L 868,666 L 867,666 L 866,665 Z" fill="none" stroke="white" stroke-width="2" /><path d="M 853,664 L 853,665 L 854,664 L 855,664 L 856,665 L 857,664 L 859,664 Z" fill="none" stroke="white" stroke-width="2" /><path d="M 846,664 Z" fill="none" stroke="white" stroke-width="2" /><path d="M 601,663 L 600,664 L 599,664 L 598,665 L 597,665 L 592,670 L 592,671 L 591,672 L 591,682 L 592,683 L 592,685 L 598,691 L 599,691 L 600,692 L 610,692 L 611,691 L 612,691 L 614,689 L 615,689 L 615,688 L 617,686 L 617,684 L 618,683 L 618,673 L 617,672 L 617,671 L 615,669 L 615,668 L 611,664 L 609,664 L 608,663 Z" fill="none" stroke="white" stroke-width="2" /><path d="M 822,662 L 822,669 L 823,669 L 822,668 L 822,664 L 823,663 L 824,664 L 824,666 L 825,666 L 825,665 L 826,664 L 824,664 L 823,663 L 823,662 Z" fill="none" stroke="white" stroke-width="2" /><path d="M 821,660 Z" fill="none" stroke="white" stroke-width="2" /><path d="M 827,658 L 833,658 Z" fill="none" stroke="white" stroke-width="2" /><path d="M 246,658 L 246,659 Z" fill="none" stroke="white" stroke-width="2" /><path d="M 366,657 L 366,659 L 367,659 L 367,658 Z" fill="none" stroke="white" stroke-width="2" /><path d="M 345,657 L 345,658 L 346,658 Z" fill="none" stroke="white" stroke-width="2" /><path d="M 287,657 L 287,659 Z" fill="none" stroke="white" stroke-width="2" /><path d="M 267,657 L 267,658 L 268,659 L 268,658 Z" fill="none" stroke="white" stroke-width="2" /><path d="M 204,657 L 204,659 L 205,659 L 205,657 Z" fill="none" stroke="white" stroke-width="2" /><path d="M 224,656 L 224,658 L 225,659 L 225,660 L 225,656 Z" fill="none" stroke="white" stroke-width="2" /><path d="M 818,638 Z" fill="none" stroke="white" stroke-width="2" /><path d="M 798,638 L 798,639 L 799,638 Z" fill="none" stroke="white" stroke-width="2" /><path d="M 307,637 L 306,638 L 307,638 Z" fill="none" stroke="white" stroke-width="2" /><path d="M 205,637 Z" fill="none" stroke="white" stroke-width="2" /><path d="M 185,637 Z" fill="none" stroke="white" stroke-width="2" /><path d="M 923,636 L 923,637 Z" fill="none" stroke="white" stroke-width="2" /><path d="M 923,617 Z" fill="none" stroke="white" stroke-width="2" /><path d="M 267,615 Z" fill="none" stroke="white" stroke-width="2" /><path d="M 817,596 L 818,596 Z" fill="none" stroke="white" stroke-width="2" /><path d="M 213,580 L 213,581 L 212,582 L 212,585 L 212,583 L 213,582 Z" fill="none" stroke="white" stroke-width="2" /><path d="M 289,579 Z" fill="none" stroke="white" stroke-width="2" /><path d="M 256,579 L 259,579 Z" fill="none" stroke="white" stroke-width="2" /><path d="M 292,578 Z" fill="none" stroke="white" stroke-width="2" /><path d="M 253,578 Z" fill="none" stroke="white" stroke-width="2" /><path d="M 199,577 L 199,579 L 208,579 L 200,579 L 199,578 Z" fill="none" stroke="white" stroke-width="2" /><path d="M 294,576 Z" fill="none" stroke="white" stroke-width="2" /><path d="M 262,576 Z" fill="none" stroke="white" stroke-width="2" /><path d="M 215,576 L 214,577 Z" fill="none" stroke="white" stroke-width="2" /><path d="M 243,575 Z" fill="none" stroke="white" stroke-width="2" /><path d="M 216,572 L 216,574 Z" fill="none" stroke="white" stroke-width="2" /><path d="M 237,570 L 237,571 Z" fill="none" stroke="white" stroke-width="2" /><path d="M 296,568 L 296,573 Z" fill="none" stroke="white" stroke-width="2" /><path d="M 217,568 L 217,570 Z" fill="none" stroke="white" stroke-width="2" /><path d="M 167,568 Z" fill="none" stroke="white" stroke-width="2" /><path d="M 295,566 Z" fill="none" stroke="white" stroke-width="2" /><path d="M 219,565 Z" fill="none" stroke="white" stroke-width="2" /><path d="M 294,564 Z" fill="none" stroke="white" stroke-width="2" /><path d="M 273,562 L 273,564 Z" fill="none" stroke="white" stroke-width="2" /><path d="M 189,562 L 190,563 L 190,574 L 190,562 Z" fill="none" stroke="white" stroke-width="2" /><path d="M 187,561 Z" fill="none" stroke="white" stroke-width="2" /><path d="M 171,561 L 170,562 Z" fill="none" stroke="white" stroke-width="2" /><path d="M 273,558 L 273,560 L 274,560 L 274,558 Z" fill="none" stroke="white" stroke-width="2" /><path d="M 243,556 L 243,573 Z" fill="none" stroke="white" stroke-width="2" /><path d="M 860,553 L 860,555 L 861,555 L 861,554 Z" fill="none" stroke="white" stroke-width="2" /><path d="M 250,552 Z" fill="none" stroke="white" stroke-width="2" /><path d="M 817,534 Z" fill="none" stroke="white" stroke-width="2" /><path d="M 246,534 Z" fill="none" stroke="white" stroke-width="2" /><path d="M 225,534 Z" fill="none" stroke="white" stroke-width="2" /><path d="M 205,534 Z" fill="none" stroke="white" stroke-width="2" /><path d="M 923,533 L 923,534 Z" fill="none" stroke="white" stroke-width="2" /><path d="M 881,533 Z" fill="none" stroke="white" stroke-width="2" /><path d="M 185,533 L 185,534 Z" fill="none" stroke="white" stroke-width="2" /><path d="M 163,533 L 164,533 Z" fill="none" stroke="white" stroke-width="2" /><path d="M 141,533 L 141,534 L 142,534 Z" fill="none" stroke="white" stroke-width="2" /><path d="M 268,532 Z" fill="none" stroke="white" stroke-width="2" /><path d="M 923,514 L 923,515 L 924,514 Z" fill="none" stroke="white" stroke-width="2" /><path d="M 205,514 L 206,514 Z" fill="none" stroke="white" stroke-width="2" /><path d="M 838,513 L 838,514 L 839,515 L 839,513 Z" fill="none" stroke="white" stroke-width="2" /><path d="M 753,506 Z" fill="none" stroke="white" stroke-width="2" /><path d="M 756,502 Z" fill="none" stroke="white" stroke-width="2" /><path d="M 413,491 L 412,492 L 411,492 L 410,493 L 409,493 L 406,496 L 406,497 L 405,498 L 405,500 L 404,501 L 404,504 L 405,505 L 405,507 L 406,508 L 406,509 L 407,510 L 407,511 L 411,515 L 413,515 L 414,516 L 417,516 L 418,515 L 421,515 L 422,514 L 423,514 L 428,509 L 428,505 L 429,504 L 428,503 L 428,500 L 427,499 L 427,497 L 423,493 L 422,493 L 421,492 L 420,492 L 419,491 Z" fill="none" stroke="white" stroke-width="2" /><path d="M 902,474 L 903,474 Z" fill="none" stroke="white" stroke-width="2" /><path d="M 879,473 L 880,474 L 881,474 L 881,473 Z" fill="none" stroke="white" stroke-width="2" /><path d="M 838,473 L 838,474 L 839,474 Z" fill="none" stroke="white" stroke-width="2" /><path d="M 142,457 Z" fill="none" stroke="white" stroke-width="2" /><path d="M 814,455 L 814,456 Z" fill="none" stroke="white" stroke-width="2" /><path d="M 1003,447 Z" fill="none" stroke="white" stroke-width="2" /><path d="M 866,443 Z" fill="none" stroke="white" stroke-width="2" /><path d="M 925,442 L 925,443 Z" fill="none" stroke="white" stroke-width="2" /><path d="M 944,440 Z" fill="none" stroke="white" stroke-width="2" /><path d="M 869,440 L 868,441 Z" fill="none" stroke="white" stroke-width="2" /><path d="M 999,435 Z" fill="none" stroke="white" stroke-width="2" /><path d="M 881,434 L 882,435 Z" fill="none" stroke="white" stroke-width="2" /><path d="M 998,433 Z" fill="none" stroke="white" stroke-width="2" /><path d="M 888,433 L 889,434 L 889,436 L 889,433 Z" fill="none" stroke="white" stroke-width="2" /><path d="M 865,433 L 865,434 Z" fill="none" stroke="white" stroke-width="2" /><path d="M 106,433 L 107,433 Z" fill="none" stroke="white" stroke-width="2" /><path d="M 864,431 Z" fill="none" stroke="white" stroke-width="2" /><path d="M 885,430 Z" fill="none" stroke="white" stroke-width="2" /><path d="M 873,430 L 873,432 L 872,433 L 872,437 L 871,438 L 872,437 L 873,437 Z" fill="none" stroke="white" stroke-width="2" /><path d="M 871,430 Z" fill="none" stroke="white" stroke-width="2" /><path d="M 853,429 Z" fill="none" stroke="white" stroke-width="2" /><path d="M 830,429 L 830,430 L 831,429 Z" fill="none" stroke="white" stroke-width="2" /><path d="M 111,428 Z" fill="none" stroke="white" stroke-width="2" /><path d="M 1004,427 L 1003,428 L 1003,430 L 1004,430 L 1004,429 L 1005,428 Z" fill="none" stroke="white" stroke-width="2" /><path d="M 844,427 L 845,428 L 844,429 L 842,429 L 840,431 L 840,436 L 841,436 L 842,437 L 842,438 L 844,440 L 844,441 L 844,440 L 845,439 L 847,439 L 846,438 L 846,435 L 845,434 L 845,431 L 844,430 L 845,429 L 846,429 L 846,428 L 845,427 Z" fill="none" stroke="white" stroke-width="2" /><path d="M 101,427 L 101,428 Z" fill="none" stroke="white" stroke-width="2" /><path d="M 1001,426 L 1001,427 Z" fill="none" stroke="white" stroke-width="2" /><path d="M 134,426 Z" fill="none" stroke="white" stroke-width="2" /><path d="M 86,426 L 86,427 L 85,428 L 85,429 L 85,428 L 86,427 Z" fill="none" stroke="white" stroke-width="2" /><path d="M 1006,425 Z" fill="none" stroke="white" stroke-width="2" /><path d="M 87,424 Z" fill="none" stroke="white" stroke-width="2" /><path d="M 973,423 L 973,427 Z" fill="none" stroke="white" stroke-width="2" /><path d="M 923,423 L 923,443 L 923,439 L 924,438 L 924,435 L 925,434 L 925,428 L 924,427 L 924,426 L 923,425 L 924,424 Z" fill="none" stroke="white" stroke-width="2" /><path d="M 112,421 L 113,422 L 112,423 L 112,424 L 115,427 L 113,425 L 113,422 Z" fill="none" stroke="white" stroke-width="2" /><path d="M 199,418 Z" fill="none" stroke="white" stroke-width="2" /><path d="M 112,418 L 113,419 L 113,418 Z" fill="none" stroke="white" stroke-width="2" /><path d="M 122,414 L 120,416 L 120,417 L 120,416 Z" fill="none" stroke="white" stroke-width="2" /><path d="M 165,413 L 163,415 Z" fill="none" stroke="white" stroke-width="2" /><path d="M 156,412 L 156,413 L 155,414 L 155,415 L 156,415 L 155,414 L 156,413 Z" fill="none" stroke="white" stroke-width="2" /><path d="M 148,412 L 149,412 Z" fill="none" stroke="white" stroke-width="2" /><path d="M 93,410 Z" fill="none" stroke="white" stroke-width="2" /><path d="M 939,401 Z" fill="none" stroke="white" stroke-width="2" /><path d="M 948,397 Z" fill="none" stroke="white" stroke-width="2" /><path d="M 869,397 Z" fill="none" stroke="white" stroke-width="2" /><path d="M 959,393 L 959,394 Z" fill="none" stroke="white" stroke-width="2" /><path d="M 946,391 Z" fill="none" stroke="white" stroke-width="2" /><path d="M 876,389 Z" fill="none" stroke="white" stroke-width="2" /><path d="M 104,388 Z" fill="none" stroke="white" stroke-width="2" /><path d="M 946,387 Z" fill="none" stroke="white" stroke-width="2" /><path d="M 59,387 L 61,387 Z" fill="none" stroke="white" stroke-width="2" /><path d="M 132,385 L 133,386 L 133,388 L 132,389 L 133,389 L 133,385 Z" fill="none" stroke="white" stroke-width="2" /><path d="M 75,385 L 75,386 L 76,386 L 76,385 Z" fill="none" stroke="white" stroke-width="2" /><path d="M 68,385 Z" fill="none" stroke="white" stroke-width="2" /><path d="M 935,384 L 936,385 Z" fill="none" stroke="white" stroke-width="2" /><path d="M 815,384 L 814,385 L 815,385 Z" fill="none" stroke="white" stroke-width="2" /><path d="M 64,384 Z" fill="none" stroke="white" stroke-width="2" /><path d="M 853,383 Z" fill="none" stroke="white" stroke-width="2" /><path d="M 180,383 L 180,385 L 179,386 L 177,386 L 176,387 L 183,387 L 185,385 L 186,386 L 186,387 L 186,386 L 185,385 L 185,384 L 182,384 L 181,383 Z" fill="none" stroke="white" stroke-width="2" /><path d="M 960,382 L 959,383 Z" fill="none" stroke="white" stroke-width="2" /><path d="M 107,382 L 107,383 L 111,383 L 111,382 Z" fill="none" stroke="white" stroke-width="2" /><path d="M 983,381 L 983,382 L 984,381 L 990,381 Z" fill="none" stroke="white" stroke-width="2" /><path d="M 935,381 L 935,382 Z" fill="none" stroke="white" stroke-width="2" /><path d="M 921,381 Z" fill="none" stroke="white" stroke-width="2" /><path d="M 991,378 Z" fill="none" stroke="white" stroke-width="2" /><path d="M 946,377 L 946,384 L 947,384 L 948,385 L 948,387 L 949,388 L 952,388 L 953,389 L 953,390 L 954,391 L 953,392 L 954,391 L 954,390 L 953,389 L 953,388 L 954,387 L 955,388 L 955,387 L 953,385 L 952,386 L 950,386 L 949,385 L 949,384 L 951,382 L 952,383 L 950,381 L 950,380 L 949,380 Z" fill="none" stroke="white" stroke-width="2" /><path d="M 201,374 Z" fill="none" stroke="white" stroke-width="2" /><path d="M 798,366 L 798,367 Z" fill="none" stroke="white" stroke-width="2" /><path d="M 944,363 L 944,364 L 945,364 L 945,363 Z" fill="none" stroke="white" stroke-width="2" /><path d="M 859,363 L 860,364 L 860,365 L 860,363 Z" fill="none" stroke="white" stroke-width="2" /><path d="M 838,363 L 838,365 L 839,364 L 839,363 Z" fill="none" stroke="white" stroke-width="2" /><path d="M 815,363 L 815,364 L 816,364 L 816,363 Z" fill="none" stroke="white" stroke-width="2" /><path d="M 207,363 Z" fill="none" stroke="white" stroke-width="2" /><path d="M 120,363 L 120,364 L 121,364 L 121,363 Z" fill="none" stroke="white" stroke-width="2" /><path d="M 100,363 L 100,364 L 101,364 Z" fill="none" stroke="white" stroke-width="2" /><path d="M 76,363 L 76,364 L 77,364 L 77,363 Z" fill="none" stroke="white" stroke-width="2" /><path d="M 225,362 L 225,364 L 226,364 L 226,363 Z" fill="none" stroke="white" stroke-width="2" /><path d="M 186,362 L 187,363 L 187,364 L 187,362 Z" fill="none" stroke="white" stroke-width="2" /><path d="M 162,362 L 162,364 L 164,364 L 164,362 Z" fill="none" stroke="white" stroke-width="2" /><path d="M 58,362 L 58,363 Z" fill="none" stroke="white" stroke-width="2" /><path d="M 140,361 L 140,365 L 141,366 L 141,362 Z" fill="none" stroke="white" stroke-width="2" /><path d="M 945,342 L 945,343 Z" fill="none" stroke="white" stroke-width="2" /><path d="M 163,342 L 164,342 Z" fill="none" stroke="white" stroke-width="2" /><path d="M 98,342 L 98,343 L 99,343 L 99,342 Z" fill="none" stroke="white" stroke-width="2" /><path d="M 78,342 Z" fill="none" stroke="white" stroke-width="2" /><path d="M 838,341 L 838,342 Z" fill="none" stroke="white" stroke-width="2" /><path d="M 816,341 L 816,343 L 817,343 L 817,342 Z" fill="none" stroke="white" stroke-width="2" /><path d="M 225,341 L 225,342 L 226,342 L 226,341 Z" fill="none" stroke="white" stroke-width="2" /><path d="M 206,341 L 205,342 L 206,342 Z" fill="none" stroke="white" stroke-width="2" /><path d="M 139,341 L 139,342 L 143,342 L 143,341 Z" fill="none" stroke="white" stroke-width="2" /><path d="M 121,341 L 120,342 L 121,343 L 122,342 Z" fill="none" stroke="white" stroke-width="2" /><path d="M 184,339 L 184,344 L 186,344 L 186,340 L 185,339 Z" fill="none" stroke="white" stroke-width="2" /><path d="M 134,328 L 134,330 Z" fill="none" stroke="white" stroke-width="2" /><path d="M 121,324 Z" fill="none" stroke="white" stroke-width="2" /><path d="M 837,321 L 837,322 L 838,322 L 838,321 Z" fill="none" stroke="white" stroke-width="2" /><path d="M 816,321 L 816,323 L 817,323 L 817,321 Z" fill="none" stroke="white" stroke-width="2" /><path d="M 156,321 Z" fill="none" stroke="white" stroke-width="2" /><path d="M 121,321 Z" fill="none" stroke="white" stroke-width="2" /><path d="M 223,320 L 224,321 L 224,322 L 225,322 L 225,320 Z" fill="none" stroke="white" stroke-width="2" /><path d="M 205,320 L 204,321 L 204,322 L 205,322 L 205,321 L 206,320 Z" fill="none" stroke="white" stroke-width="2" /><path d="M 77,320 L 77,322 L 78,322 L 78,321 Z" fill="none" stroke="white" stroke-width="2" /><path d="M 249,310 Z" fill="none" stroke="white" stroke-width="2" /><path d="M 188,301 Z" fill="none" stroke="white" stroke-width="2" /><path d="M 179,301 Z" fill="none" stroke="white" stroke-width="2" /><path d="M 108,301 L 116,301 L 117,302 L 118,302 L 117,302 L 116,301 Z" fill="none" stroke="white" stroke-width="2" /><path d="M 798,300 L 798,301 Z" fill="none" stroke="white" stroke-width="2" /><path d="M 944,299 L 943,300 L 944,301 L 945,301 L 945,299 Z" fill="none" stroke="white" stroke-width="2" /><path d="M 839,299 L 839,301 L 840,300 L 840,299 Z" fill="none" stroke="white" stroke-width="2" /><path d="M 200,299 Z" fill="none" stroke="white" stroke-width="2" /><path d="M 77,297 L 77,300 L 79,300 L 79,299 Z" fill="none" stroke="white" stroke-width="2" /><path d="M 944,279 L 945,279 Z" fill="none" stroke="white" stroke-width="2" /><path d="M 923,279 L 923,281 L 924,280 L 924,279 Z" fill="none" stroke="white" stroke-width="2" /><path d="M 244,279 Z" fill="none" stroke="white" stroke-width="2" /><path d="M 141,279 L 141,281 L 142,280 L 142,279 Z" fill="none" stroke="white" stroke-width="2" /><path d="M 98,279 L 99,280 L 100,280 L 100,279 Z" fill="none" stroke="white" stroke-width="2" /><path d="M 860,278 L 860,281 L 861,281 L 861,279 Z" fill="none" stroke="white" stroke-width="2" /><path d="M 839,278 L 839,280 L 840,279 L 840,278 Z" fill="none" stroke="white" stroke-width="2" /><path d="M 817,278 L 817,281 L 817,280 L 818,279 L 818,278 Z" fill="none" stroke="white" stroke-width="2" /><path d="M 224,278 L 224,280 L 225,279 L 226,279 L 226,278 Z" fill="none" stroke="white" stroke-width="2" /><path d="M 205,278 L 205,280 Z" fill="none" stroke="white" stroke-width="2" /><path d="M 184,278 L 183,279 L 183,280 L 184,281 L 185,281 L 185,280 L 184,279 Z" fill="none" stroke="white" stroke-width="2" /><path d="M 162,278 L 163,279 L 163,280 L 164,280 L 164,279 L 163,278 Z" fill="none" stroke="white" stroke-width="2" /><path d="M 77,278 L 77,279 L 79,279 L 79,278 Z" fill="none" stroke="white" stroke-width="2" /><path d="M 944,258 L 944,260 L 945,260 L 945,258 Z" fill="none" stroke="white" stroke-width="2" /><path d="M 923,258 L 923,259 L 924,259 L 924,258 Z" fill="none" stroke="white" stroke-width="2" /><path d="M 903,258 L 903,260 L 904,260 L 904,258 Z" fill="none" stroke="white" stroke-width="2" /><path d="M 779,258 L 779,259 L 780,259 L 781,258 Z" fill="none" stroke="white" stroke-width="2" /><path d="M 761,258 L 760,259 L 760,260 L 761,260 L 762,259 Z" fill="none" stroke="white" stroke-width="2" /><path d="M 286,258 L 286,259 L 287,260 L 287,259 Z" fill="none" stroke="white" stroke-width="2" /><path d="M 162,258 L 162,259 L 163,259 L 163,258 Z" fill="none" stroke="white" stroke-width="2" /><path d="M 99,258 L 98,259 L 99,260 L 100,259 L 100,258 Z" fill="none" stroke="white" stroke-width="2" /><path d="M 880,257 L 880,258 L 881,259 L 881,260 L 883,260 L 883,258 L 882,257 Z" fill="none" stroke="white" stroke-width="2" /><path d="M 860,257 L 860,259 L 861,260 L 862,260 L 862,258 L 861,257 Z" fill="none" stroke="white" stroke-width="2" /><path d="M 839,257 L 838,258 L 839,259 L 839,260 L 840,259 L 841,259 L 841,258 L 840,257 Z" fill="none" stroke="white" stroke-width="2" /><path d="M 817,257 L 817,259 L 818,259 L 818,258 Z" fill="none" stroke="white" stroke-width="2" /><path d="M 265,257 L 265,259 L 266,260 L 267,259 L 267,257 Z" fill="none" stroke="white" stroke-width="2" /><path d="M 243,257 L 243,259 L 244,259 L 244,257 Z" fill="none" stroke="white" stroke-width="2" /><path d="M 225,257 L 224,258 L 224,260 L 225,261 L 226,261 L 227,260 L 227,257 L 227,258 L 226,259 L 225,258 Z" fill="none" stroke="white" stroke-width="2" /><path d="M 205,257 L 204,258 L 204,259 L 205,260 L 206,259 L 205,258 Z" fill="none" stroke="white" stroke-width="2" /><path d="M 185,257 L 184,258 L 184,259 L 185,259 Z" fill="none" stroke="white" stroke-width="2" /><path d="M 141,257 L 141,259 L 142,260 L 143,259 L 143,258 L 142,257 Z" fill="none" stroke="white" stroke-width="2" /><path d="M 120,257 L 120,260 L 121,260 L 122,259 L 122,257 Z" fill="none" stroke="white" stroke-width="2" /><path d="M 77,257 L 77,259 L 78,260 L 79,259 L 78,258 L 78,257 Z" fill="none" stroke="white" stroke-width="2" /><path d="M 814,239 Z" fill="none" stroke="white" stroke-width="2" /><path d="M 944,237 L 945,237 Z" fill="none" stroke="white" stroke-width="2" /><path d="M 923,237 L 923,238 L 924,238 L 924,237 Z" fill="none" stroke="white" stroke-width="2" /><path d="M 903,237 Z" fill="none" stroke="white" stroke-width="2" /><path d="M 882,237 Z" fill="none" stroke="white" stroke-width="2" /><path d="M 780,237 L 781,237 Z" fill="none" stroke="white" stroke-width="2" /><path d="M 184,237 L 184,238 L 186,238 L 185,237 Z" fill="none" stroke="white" stroke-width="2" /><path d="M 77,237 L 78,237 Z" fill="none" stroke="white" stroke-width="2" /><path d="M 861,236 L 861,238 L 862,238 L 862,237 Z" fill="none" stroke="white" stroke-width="2" /><path d="M 839,236 L 839,237 L 840,237 L 840,236 Z" fill="none" stroke="white" stroke-width="2" /><path d="M 760,236 L 760,238 Z" fill="none" stroke="white" stroke-width="2" /><path d="M 306,236 L 306,237 L 307,238 L 308,238 L 308,236 Z" fill="none" stroke="white" stroke-width="2" /><path d="M 286,236 L 286,237 L 287,238 L 287,236 Z" fill="none" stroke="white" stroke-width="2" /><path d="M 265,236 L 266,237 L 267,237 L 266,236 Z" fill="none" stroke="white" stroke-width="2" /><path d="M 204,236 L 205,237 L 205,238 L 206,238 L 206,236 Z" fill="none" stroke="white" stroke-width="2" /><path d="M 163,236 L 162,237 L 162,238 L 163,238 L 164,237 Z" fill="none" stroke="white" stroke-width="2" /><path d="M 141,236 L 141,238 L 142,238 L 142,236 Z" fill="none" stroke="white" stroke-width="2" /><path d="M 120,236 L 120,238 L 121,238 L 121,237 Z" fill="none" stroke="white" stroke-width="2" /><path d="M 100,236 L 99,237 L 100,237 Z" fill="none" stroke="white" stroke-width="2" /><path d="M 245,235 L 242,238 L 243,237 L 244,237 L 244,236 Z" fill="none" stroke="white" stroke-width="2" /><path d="M 161,217 L 163,217 Z" fill="none" stroke="white" stroke-width="2" /><path d="M 924,216 L 924,217 Z" fill="none" stroke="white" stroke-width="2" /><path d="M 903,216 L 903,217 L 904,217 L 904,216 Z" fill="none" stroke="white" stroke-width="2" /><path d="M 861,216 L 861,217 L 862,217 Z" fill="none" stroke="white" stroke-width="2" /><path d="M 839,216 L 839,217 L 840,217 L 840,216 Z" fill="none" stroke="white" stroke-width="2" /><path d="M 781,216 L 780,217 L 781,218 L 782,218 L 783,217 L 782,216 Z" fill="none" stroke="white" stroke-width="2" /><path d="M 205,216 L 205,217 L 206,216 Z" fill="none" stroke="white" stroke-width="2" /><path d="M 184,216 L 183,217 L 184,217 Z" fill="none" stroke="white" stroke-width="2" /><path d="M 142,216 Z" fill="none" stroke="white" stroke-width="2" /><path d="M 120,216 L 120,217 L 121,216 Z" fill="none" stroke="white" stroke-width="2" /><path d="M 760,215 L 760,216 Z" fill="none" stroke="white" stroke-width="2" /><path d="M 740,215 L 739,216 L 740,217 Z" fill="none" stroke="white" stroke-width="2" /><path d="M 476,215 L 475,216 L 470,216 L 469,217 L 466,217 L 465,218 L 462,218 L 461,219 L 460,219 L 459,220 L 458,220 L 457,221 L 455,221 L 454,222 L 453,222 L 452,223 L 451,223 L 450,224 L 449,224 L 448,225 L 447,225 L 446,226 L 445,226 L 444,227 L 443,227 L 441,229 L 440,229 L 438,231 L 437,231 L 435,233 L 434,233 L 425,242 L 425,243 L 420,248 L 420,249 L 418,251 L 418,252 L 416,254 L 416,255 L 414,257 L 414,258 L 412,260 L 412,261 L 411,262 L 411,263 L 410,264 L 410,265 L 409,266 L 409,268 L 408,269 L 408,270 L 407,271 L 407,273 L 406,274 L 406,275 L 405,276 L 405,278 L 403,280 L 394,280 L 393,279 L 373,279 L 372,280 L 365,280 L 364,281 L 361,281 L 360,282 L 357,282 L 356,283 L 355,283 L 354,284 L 352,284 L 351,285 L 350,285 L 349,286 L 348,286 L 347,287 L 345,287 L 343,289 L 342,289 L 341,290 L 340,290 L 339,291 L 338,291 L 336,293 L 335,293 L 332,296 L 331,296 L 326,301 L 325,301 L 323,303 L 323,304 L 313,314 L 313,315 L 309,319 L 309,320 L 307,322 L 307,323 L 305,325 L 305,326 L 304,327 L 304,328 L 303,329 L 303,330 L 302,331 L 302,333 L 301,334 L 301,335 L 300,336 L 300,338 L 299,339 L 299,341 L 298,342 L 298,344 L 297,345 L 297,347 L 296,348 L 296,351 L 295,352 L 295,356 L 294,357 L 294,368 L 293,369 L 293,371 L 294,372 L 294,388 L 295,389 L 295,394 L 296,395 L 296,398 L 297,399 L 297,401 L 298,402 L 298,404 L 299,405 L 299,407 L 300,408 L 300,409 L 301,410 L 301,411 L 302,412 L 302,413 L 303,414 L 303,415 L 305,417 L 305,418 L 306,419 L 306,420 L 308,422 L 308,423 L 311,426 L 311,427 L 319,435 L 319,436 L 321,438 L 321,439 L 322,440 L 322,441 L 323,442 L 323,443 L 324,444 L 324,445 L 325,446 L 325,447 L 326,448 L 326,449 L 328,451 L 328,452 L 336,460 L 337,460 L 340,463 L 341,463 L 343,465 L 344,465 L 345,466 L 347,466 L 348,467 L 349,467 L 350,468 L 352,468 L 353,469 L 357,469 L 358,470 L 365,470 L 366,469 L 370,469 L 371,468 L 373,468 L 374,467 L 375,467 L 376,466 L 378,466 L 379,465 L 380,465 L 382,463 L 383,463 L 393,453 L 393,452 L 395,450 L 395,449 L 396,448 L 396,447 L 397,446 L 429,446 L 430,447 L 440,447 L 441,448 L 442,448 L 443,449 L 446,449 L 447,450 L 448,450 L 449,451 L 451,451 L 453,453 L 454,453 L 455,454 L 456,454 L 457,455 L 458,455 L 460,457 L 461,457 L 462,458 L 463,458 L 466,461 L 467,461 L 473,467 L 474,467 L 477,470 L 477,471 L 481,475 L 481,476 L 484,479 L 484,480 L 486,482 L 486,483 L 488,485 L 488,486 L 490,488 L 490,489 L 491,490 L 491,491 L 492,492 L 492,493 L 493,494 L 493,496 L 494,497 L 494,499 L 495,500 L 495,503 L 496,504 L 496,506 L 497,507 L 497,510 L 498,511 L 498,514 L 499,515 L 499,519 L 500,520 L 500,525 L 501,526 L 501,535 L 502,536 L 502,548 L 501,549 L 501,786 L 499,788 L 498,788 L 497,789 L 497,790 L 495,792 L 495,793 L 493,795 L 493,797 L 492,798 L 492,807 L 493,808 L 493,809 L 494,810 L 494,811 L 496,813 L 496,814 L 501,819 L 502,819 L 503,820 L 514,820 L 515,819 L 516,819 L 517,818 L 518,818 L 523,813 L 523,812 L 525,810 L 525,808 L 526,807 L 526,801 L 525,800 L 525,798 L 524,797 L 524,796 L 523,795 L 523,794 L 522,793 L 522,792 L 517,787 L 516,787 L 515,786 L 515,534 L 516,533 L 516,526 L 517,525 L 517,519 L 518,518 L 518,515 L 519,514 L 519,511 L 520,510 L 520,508 L 521,507 L 521,505 L 522,504 L 522,502 L 523,501 L 523,500 L 524,499 L 524,498 L 525,497 L 525,496 L 526,495 L 526,494 L 527,493 L 527,492 L 528,491 L 528,490 L 529,489 L 529,488 L 530,487 L 530,486 L 533,483 L 533,482 L 541,474 L 541,473 L 542,472 L 543,472 L 547,468 L 548,468 L 551,465 L 552,465 L 554,463 L 555,463 L 556,462 L 557,462 L 559,460 L 560,460 L 561,459 L 562,459 L 563,458 L 564,458 L 565,457 L 566,457 L 567,456 L 568,456 L 569,455 L 571,455 L 572,454 L 574,454 L 575,453 L 577,453 L 578,452 L 580,452 L 581,451 L 583,451 L 584,450 L 588,450 L 589,449 L 617,449 L 618,450 L 632,450 L 633,451 L 656,451 L 657,450 L 661,450 L 662,449 L 665,449 L 666,448 L 668,448 L 669,447 L 671,447 L 672,446 L 673,446 L 674,445 L 675,445 L 676,444 L 677,444 L 678,443 L 679,443 L 681,441 L 682,441 L 684,439 L 685,439 L 689,435 L 690,435 L 701,424 L 701,423 L 703,421 L 703,420 L 705,418 L 705,417 L 706,416 L 706,415 L 707,414 L 707,413 L 708,412 L 708,411 L 709,410 L 709,409 L 710,408 L 710,407 L 711,406 L 711,402 L 712,401 L 712,400 L 713,399 L 713,396 L 714,395 L 714,386 L 715,385 L 715,382 L 714,381 L 714,371 L 713,370 L 713,364 L 712,363 L 712,360 L 711,359 L 711,357 L 710,356 L 710,355 L 709,354 L 709,352 L 707,350 L 707,348 L 706,347 L 706,346 L 705,345 L 705,344 L 702,341 L 702,340 L 697,335 L 697,334 L 693,330 L 692,330 L 691,329 L 691,328 L 690,328 L 688,326 L 687,326 L 685,324 L 684,324 L 682,322 L 681,322 L 680,321 L 679,321 L 678,320 L 677,320 L 676,319 L 675,319 L 674,318 L 671,318 L 670,317 L 669,317 L 668,316 L 664,316 L 661,313 L 661,310 L 660,309 L 660,307 L 659,306 L 659,305 L 658,304 L 658,302 L 657,301 L 657,300 L 656,299 L 656,298 L 655,297 L 655,296 L 654,295 L 654,294 L 653,293 L 653,292 L 651,290 L 651,289 L 649,287 L 649,286 L 646,283 L 646,282 L 638,274 L 637,274 L 633,270 L 632,270 L 631,269 L 631,268 L 630,268 L 629,267 L 628,267 L 626,265 L 625,265 L 624,264 L 623,264 L 622,263 L 621,263 L 620,262 L 618,262 L 617,261 L 616,261 L 615,260 L 613,260 L 612,259 L 609,259 L 608,258 L 602,258 L 601,257 L 587,257 L 586,258 L 579,258 L 578,259 L 575,259 L 574,260 L 571,260 L 570,261 L 569,261 L 568,262 L 567,262 L 563,258 L 563,257 L 561,255 L 561,254 L 560,253 L 560,252 L 555,247 L 555,246 L 549,240 L 549,239 L 548,239 L 543,234 L 542,234 L 538,230 L 537,230 L 535,228 L 534,228 L 533,227 L 532,227 L 531,226 L 530,226 L 528,224 L 527,224 L 526,223 L 525,223 L 524,222 L 523,222 L 522,221 L 521,221 L 520,220 L 518,220 L 517,219 L 515,219 L 514,218 L 512,218 L 511,217 L 508,217 L 507,216 L 501,216 L 500,215 Z" fill="none" stroke="white" stroke-width="2" /><path d="M 327,215 Z" fill="none" stroke="white" stroke-width="2" /><path d="M 306,215 L 306,217 L 308,217 L 308,216 L 307,215 Z" fill="none" stroke="white" stroke-width="2" /><path d="M 286,215 L 286,216 L 287,216 L 287,215 Z" fill="none" stroke="white" stroke-width="2" /><path d="M 265,215 L 265,218 L 266,218 L 266,215 Z" fill="none" stroke="white" stroke-width="2" /><path d="M 719,214 L 719,215 L 720,216 L 720,215 Z" fill="none" stroke="white" stroke-width="2" /><path d="M 367,213 L 367,214 L 368,214 Z" fill="none" stroke="white" stroke-width="2" /><path d="M 347,213 L 346,214 L 346,216 L 347,216 Z" fill="none" stroke="white" stroke-width="2" /><path d="M 923,195 L 923,196 L 924,196 L 924,195 Z" fill="none" stroke="white" stroke-width="2" /><path d="M 903,195 L 903,196 L 905,196 L 904,195 Z" fill="none" stroke="white" stroke-width="2" /><path d="M 326,195 L 327,196 L 328,196 L 328,195 Z" fill="none" stroke="white" stroke-width="2" /><path d="M 265,195 L 265,196 L 266,196 L 266,195 Z" fill="none" stroke="white" stroke-width="2" /><path d="M 184,195 L 184,196 L 185,196 L 185,195 Z" fill="none" stroke="white" stroke-width="2" /><path d="M 162,195 L 163,196 L 163,195 Z" fill="none" stroke="white" stroke-width="2" /><path d="M 98,195 L 99,196 L 100,196 L 100,195 Z" fill="none" stroke="white" stroke-width="2" /><path d="M 739,194 L 739,195 L 740,195 L 740,194 Z" fill="none" stroke="white" stroke-width="2" /><path d="M 699,194 L 699,195 L 700,196 L 700,194 Z" fill="none" stroke="white" stroke-width="2" /><path d="M 473,194 L 474,195 L 474,194 Z" fill="none" stroke="white" stroke-width="2" /><path d="M 431,194 Z" fill="none" stroke="white" stroke-width="2" /><path d="M 409,194 L 409,195 L 410,196 L 410,194 Z" fill="none" stroke="white" stroke-width="2" /><path d="M 387,194 L 387,195 L 389,197 L 389,195 L 388,194 Z" fill="none" stroke="white" stroke-width="2" /><path d="M 366,194 L 366,195 L 367,196 L 370,196 L 370,195 L 369,194 Z" fill="none" stroke="white" stroke-width="2" /><path d="M 346,194 L 346,196 L 347,196 L 347,194 Z" fill="none" stroke="white" stroke-width="2" /><path d="M 306,194 L 306,196 L 307,197 L 308,197 L 308,194 Z" fill="none" stroke="white" stroke-width="2" /><path d="M 286,194 L 286,195 L 287,196 L 288,196 L 288,195 L 287,194 Z" fill="none" stroke="white" stroke-width="2" /><path d="M 121,194 L 120,195 L 120,196 L 122,196 L 122,195 Z" fill="none" stroke="white" stroke-width="2" /><path d="M 719,193 L 719,196 L 720,196 L 721,195 L 721,194 L 720,194 Z" fill="none" stroke="white" stroke-width="2" /><path d="M 793,186 Z" fill="none" stroke="white" stroke-width="2" /><path d="M 236,186 Z" fill="none" stroke="white" stroke-width="2" /><path d="M 239,185 Z" fill="none" stroke="white" stroke-width="2" /><path d="M 780,184 Z" fill="none" stroke="white" stroke-width="2" /><path d="M 778,184 Z" fill="none" stroke="white" stroke-width="2" /><path d="M 244,180 L 244,181 L 241,184 L 244,181 Z" fill="none" stroke="white" stroke-width="2" /><path d="M 810,178 L 816,178 Z" fill="none" stroke="white" stroke-width="2" /><path d="M 807,178 L 806,179 L 806,190 L 806,182 L 807,181 Z" fill="none" stroke="white" stroke-width="2" /><path d="M 784,178 L 784,182 Z" fill="none" stroke="white" stroke-width="2" /><path d="M 797,176 L 797,178 L 795,180 L 796,181 L 796,180 L 797,179 Z" fill="none" stroke="white" stroke-width="2" /><path d="M 266,174 L 266,175 Z" fill="none" stroke="white" stroke-width="2" /><path d="M 244,174 L 244,176 Z" fill="none" stroke="white" stroke-width="2" /><path d="M 862,173 L 861,174 L 863,174 Z" fill="none" stroke="white" stroke-width="2" /><path d="M 431,173 Z" fill="none" stroke="white" stroke-width="2" /><path d="M 409,173 Z" fill="none" stroke="white" stroke-width="2" /><path d="M 388,173 L 388,174 Z" fill="none" stroke="white" stroke-width="2" /><path d="M 739,172 L 739,173 L 740,174 L 741,174 L 741,172 Z" fill="none" stroke="white" stroke-width="2" /><path d="M 719,172 L 719,173 L 720,174 L 720,173 Z" fill="none" stroke="white" stroke-width="2" /><path d="M 698,172 L 699,173 L 700,172 Z" fill="none" stroke="white" stroke-width="2" /><path d="M 473,172 L 473,174 L 474,174 L 474,172 Z" fill="none" stroke="white" stroke-width="2" /><path d="M 346,172 L 346,174 Z" fill="none" stroke="white" stroke-width="2" /><path d="M 326,172 L 325,173 L 326,174 L 326,175 L 327,174 L 327,173 Z" fill="none" stroke="white" stroke-width="2" /><path d="M 306,172 L 306,173 L 307,173 Z" fill="none" stroke="white" stroke-width="2" /><path d="M 184,172 L 183,173 L 183,174 L 184,175 L 185,175 L 185,172 Z" fill="none" stroke="white" stroke-width="2" /><path d="M 163,172 L 162,173 L 162,174 L 164,174 L 164,172 Z" fill="none" stroke="white" stroke-width="2" /><path d="M 99,172 L 99,174 L 100,173 L 100,172 Z" fill="none" stroke="white" stroke-width="2" /><path d="M 678,171 L 678,173 L 679,173 L 679,171 Z" fill="none" stroke="white" stroke-width="2" /><path d="M 657,171 L 657,173 L 658,173 L 658,172 Z" fill="none" stroke="white" stroke-width="2" /><path d="M 492,171 L 491,172 L 493,172 Z" fill="none" stroke="white" stroke-width="2" /><path d="M 451,171 L 451,174 L 452,174 L 452,171 Z" fill="none" stroke="white" stroke-width="2" /><path d="M 367,171 L 366,172 L 366,173 L 368,175 L 369,174 L 369,172 L 368,171 Z" fill="none" stroke="white" stroke-width="2" /><path d="M 636,170 L 636,171 Z" fill="none" stroke="white" stroke-width="2" /><path d="M 795,169 L 796,170 Z" fill="none" stroke="white" stroke-width="2" /><path d="M 793,169 Z" fill="none" stroke="white" stroke-width="2" /><path d="M 528,169 L 528,171 L 529,172 L 529,170 Z" fill="none" stroke="white" stroke-width="2" /><path d="M 788,162 L 787,163 L 788,162 L 789,162 Z" fill="none" stroke="white" stroke-width="2" /><path d="M 836,160 Z" fill="none" stroke="white" stroke-width="2" /><path d="M 805,160 Z" fill="none" stroke="white" stroke-width="2" /><path d="M 781,160 Z" fill="none" stroke="white" stroke-width="2" /><path d="M 825,157 L 825,161 Z" fill="none" stroke="white" stroke-width="2" /><path d="M 797,157 Z" fill="none" stroke="white" stroke-width="2" /><path d="M 882,152 Z" fill="none" stroke="white" stroke-width="2" /><path d="M 697,151 L 698,152 L 699,151 Z" fill="none" stroke="white" stroke-width="2" /><path d="M 431,151 Z" fill="none" stroke="white" stroke-width="2" /><path d="M 287,151 Z" fill="none" stroke="white" stroke-width="2" /><path d="M 184,151 L 184,152 L 185,152 L 185,151 Z" fill="none" stroke="white" stroke-width="2" /><path d="M 860,150 L 860,152 L 862,152 L 862,150 Z" fill="none" stroke="white" stroke-width="2" /><path d="M 655,150 L 655,151 L 656,152 L 658,152 L 658,150 Z" fill="none" stroke="white" stroke-width="2" /><path d="M 614,150 L 615,151 L 615,150 Z" fill="none" stroke="white" stroke-width="2" /><path d="M 472,150 L 472,151 L 473,151 L 473,150 Z" fill="none" stroke="white" stroke-width="2" /><path d="M 366,150 L 366,151 L 367,152 L 368,152 L 368,150 Z" fill="none" stroke="white" stroke-width="2" /><path d="M 346,150 L 346,152 L 347,151 Z" fill="none" stroke="white" stroke-width="2" /><path d="M 266,150 L 266,151 L 265,152 L 266,152 Z" fill="none" stroke="white" stroke-width="2" /><path d="M 592,149 L 591,150 L 591,151 L 594,151 L 594,149 Z" fill="none" stroke="white" stroke-width="2" /><path d="M 571,149 L 570,150 L 570,151 L 571,151 Z" fill="none" stroke="white" stroke-width="2" /><path d="M 549,149 L 549,150 L 550,150 L 550,149 Z" fill="none" stroke="white" stroke-width="2" /><path d="M 528,149 L 528,150 L 529,150 L 529,149 Z" fill="none" stroke="white" stroke-width="2" /><path d="M 840,129 L 840,130 Z" fill="none" stroke="white" stroke-width="2" /><path d="M 720,129 Z" fill="none" stroke="white" stroke-width="2" /><path d="M 678,129 Z" fill="none" stroke="white" stroke-width="2" /><path d="M 656,129 L 657,129 Z" fill="none" stroke="white" stroke-width="2" /><path d="M 635,129 L 635,130 L 636,129 Z" fill="none" stroke="white" stroke-width="2" /><path d="M 571,129 Z" fill="none" stroke="white" stroke-width="2" /><path d="M 549,129 L 550,129 Z" fill="none" stroke="white" stroke-width="2" /><path d="M 473,129 Z" fill="none" stroke="white" stroke-width="2" /><path d="M 451,129 L 451,130 L 452,130 L 452,129 Z" fill="none" stroke="white" stroke-width="2" /><path d="M 431,129 L 431,130 Z" fill="none" stroke="white" stroke-width="2" /><path d="M 409,129 L 409,130 L 410,129 Z" fill="none" stroke="white" stroke-width="2" /><path d="M 388,129 L 388,130 L 389,130 L 389,129 Z" fill="none" stroke="white" stroke-width="2" /><path d="M 245,129 Z" fill="none" stroke="white" stroke-width="2" /><path d="M 699,128 L 698,129 L 698,130 L 699,130 Z" fill="none" stroke="white" stroke-width="2" /><path d="M 593,128 L 592,129 L 592,130 L 593,130 L 594,129 L 594,128 Z" fill="none" stroke="white" stroke-width="2" /><path d="M 528,128 L 529,129 L 529,128 Z" fill="none" stroke="white" stroke-width="2" /><path d="M 367,128 L 367,130 L 368,130 L 368,128 Z" fill="none" stroke="white" stroke-width="2" /><path d="M 224,127 L 224,129 L 225,130 L 226,130 L 226,128 L 225,127 Z" fill="none" stroke="white" stroke-width="2" /><path d="M 678,107 Z" fill="none" stroke="white" stroke-width="2" /><path d="M 367,107 L 367,109 L 368,108 Z" fill="none" stroke="white" stroke-width="2" /><path d="M 549,106 L 550,106 Z" fill="none" stroke="white" stroke-width="2" /><path d="M 972,0 L 1019,0 Z" fill="none" stroke="white" stroke-width="2" /></svg>