<?xml version="1.0" encoding="UTF-8"?>
<!DOCTYPE svg PUBLIC "-//W3C//DTD SVG 1.1//EN" "http://www.w3.org/Graphics/SVG/1.1/DTD/svg11.dtd">
<svg xmlns="http://www.w3.org/2000/svg" version="1.1" width="1500px" height="1500px" style="shape-rendering:geometricPrecision; text-rendering:geometricPrecision; image-rendering:optimizeQuality; fill-rule:evenodd; clip-rule:evenodd" xmlns:xlink="http://www.w3.org/1999/xlink">
<g><path style="opacity:0.998" fill="#05d686" d="M 410.5,-0.5 C 429.5,-0.5 448.5,-0.5 467.5,-0.5C 576.933,8.22777 670.933,50.5611 749.5,126.5C 828.067,50.5611 922.067,8.22777 1031.5,-0.5C 1050.5,-0.5 1069.5,-0.5 1088.5,-0.5C 1224.54,11.4202 1333.7,71.4202 1416,179.5C 1465.32,248.622 1493.15,325.622 1499.5,410.5C 1499.5,429.5 1499.5,448.5 1499.5,467.5C 1490.77,576.933 1448.44,670.933 1372.5,749.5C 1448.44,828.067 1490.77,922.067 1499.5,1031.5C 1499.5,1050.5 1499.5,1069.5 1499.5,1088.5C 1487.58,1224.54 1427.58,1333.7 1319.5,1416C 1250.38,1465.32 1173.38,1493.15 1088.5,1499.5C 1069.5,1499.5 1050.5,1499.5 1031.5,1499.5C 922.067,1490.77 828.067,1448.44 749.5,1372.5C 670.933,1448.44 576.933,1490.77 467.5,1499.5C 448.5,1499.5 429.5,1499.5 410.5,1499.5C 274.462,1487.58 165.295,1427.58 83,1319.5C 33.6788,1250.38 5.84543,1173.38 -0.5,1088.5C -0.5,1069.5 -0.5,1050.5 -0.5,1031.5C 8.22777,922.067 50.5611,828.067 126.5,749.5C 50.5611,670.933 8.22777,576.933 -0.5,467.5C -0.5,448.5 -0.5,429.5 -0.5,410.5C 11.4202,274.462 71.4202,165.295 179.5,83C 248.622,33.6788 325.622,5.84543 410.5,-0.5 Z M 416.5,221.5 C 476.459,217.212 529.459,234.045 575.5,272C 611.806,307.305 647.806,342.972 683.5,379C 726.167,409 768.833,409 811.5,379C 843.833,346.667 876.167,314.333 908.5,282C 965.479,229.416 1032.15,211.083 1108.5,227C 1185.96,248.457 1237.46,297.29 1263,373.5C 1282.74,447.476 1268.74,514.143 1221,573.5C 1185.69,609.806 1150.03,645.806 1114,681.5C 1084,724.167 1084,766.833 1114,809.5C 1146.33,841.833 1178.67,874.167 1211,906.5C 1263.58,963.48 1281.92,1030.15 1266,1106.5C 1244.54,1183.96 1195.71,1235.46 1119.5,1261C 1045.68,1280.77 979.016,1266.77 919.5,1219C 883.528,1184.03 847.861,1148.69 812.5,1113C 769.167,1081.67 725.833,1081.67 682.5,1113C 650.5,1145 618.5,1177 586.5,1209C 529.363,1261.62 462.697,1279.95 386.5,1264C 309.043,1242.54 257.543,1193.71 232,1117.5C 212.26,1043.53 226.26,976.859 274,917.5C 308.972,881.528 344.305,845.861 380,810.5C 411.333,767.167 411.333,723.833 380,680.5C 344.305,645.139 308.972,609.472 274,573.5C 223.279,509.874 210.612,439.208 236,361.5C 262.899,292.934 311.733,248.434 382.5,228C 393.87,225.275 405.203,223.108 416.5,221.5 Z"/></g>
</svg>
